<svg width="97" height="20" viewBox="0 0 97 20" fill="none" xmlns="http://www.w3.org/2000/svg">
<path fill-rule="evenodd" clip-rule="evenodd" d="M10.7944 9.0335L9 3.125L7.20563 9.0335H1.125L6.04463 12.8585L4.21875 18.875L9 15.1569L13.7812 18.875L11.9554 12.8585L16.875 9.0335H10.7944Z" fill="#24AB70"/>
<path d="M31.8438 13.3516H30.1328V16H28.8672V13.3516H23.3438V12.2578L28.7812 4.51562H30.1328V12.1797H31.8438V13.3516ZM28.8672 12.1797V8.44531C28.8672 8.15885 28.8698 7.90104 28.875 7.67188C28.8802 7.4375 28.888 7.22135 28.8984 7.02344C28.9089 6.82031 28.9167 6.6276 28.9219 6.44531C28.9323 6.26302 28.9401 6.08333 28.9453 5.90625H28.8828C28.7839 6.11458 28.6693 6.33594 28.5391 6.57031C28.4141 6.79948 28.2865 7.00521 28.1562 7.1875L24.6328 12.1797H28.8672ZM33.3281 15.1875C33.3281 14.8229 33.4167 14.5651 33.5938 14.4141C33.7708 14.2578 33.987 14.1797 34.2422 14.1797C34.5078 14.1797 34.7318 14.2578 34.9141 14.4141C35.0964 14.5651 35.1875 14.8229 35.1875 15.1875C35.1875 15.5469 35.0964 15.8099 34.9141 15.9766C34.7318 16.138 34.5078 16.2188 34.2422 16.2188C33.987 16.2188 33.7708 16.138 33.5938 15.9766C33.4167 15.8099 33.3281 15.5469 33.3281 15.1875ZM44.6484 9.44531C44.6484 10.138 44.599 10.8125 44.5 11.4688C44.4062 12.125 44.2422 12.737 44.0078 13.3047C43.7786 13.8724 43.4661 14.3698 43.0703 14.7969C42.6745 15.224 42.1771 15.5599 41.5781 15.8047C40.9844 16.0443 40.2734 16.1641 39.4453 16.1641C39.2214 16.1641 38.9661 16.1484 38.6797 16.1172C38.3932 16.0911 38.1589 16.0521 37.9766 16V14.875C38.1693 14.9427 38.3958 14.9974 38.6562 15.0391C38.9167 15.0755 39.1719 15.0938 39.4219 15.0938C40.3958 15.0938 41.1615 14.8854 41.7188 14.4688C42.276 14.0469 42.6771 13.4766 42.9219 12.7578C43.1667 12.0339 43.3047 11.2214 43.3359 10.3203H43.2422C43.0859 10.5703 42.8802 10.8021 42.625 11.0156C42.375 11.224 42.0703 11.3932 41.7109 11.5234C41.3516 11.6484 40.9323 11.7109 40.4531 11.7109C39.7917 11.7109 39.2135 11.5755 38.7188 11.3047C38.2292 11.0339 37.8464 10.6406 37.5703 10.125C37.2995 9.60938 37.1641 8.98698 37.1641 8.25781C37.1641 7.47135 37.3125 6.79167 37.6094 6.21875C37.9115 5.64062 38.3333 5.19531 38.875 4.88281C39.4167 4.57031 40.0547 4.41406 40.7891 4.41406C41.3516 4.41406 41.8672 4.52083 42.3359 4.73438C42.8047 4.94792 43.2109 5.26823 43.5547 5.69531C43.9036 6.11719 44.1719 6.64062 44.3594 7.26562C44.5521 7.89062 44.6484 8.61719 44.6484 9.44531ZM40.7891 5.51562C40.0964 5.51562 39.5339 5.74219 39.1016 6.19531C38.6745 6.64844 38.4609 7.33073 38.4609 8.24219C38.4609 8.9974 38.6458 9.59375 39.0156 10.0312C39.3854 10.4688 39.9557 10.6875 40.7266 10.6875C41.2578 10.6875 41.7161 10.5807 42.1016 10.3672C42.4922 10.1536 42.7917 9.88281 43 9.55469C43.2135 9.22656 43.3203 8.89062 43.3203 8.54688C43.3203 8.20312 43.2682 7.85417 43.1641 7.5C43.0651 7.14583 42.9115 6.82031 42.7031 6.52344C42.4948 6.22135 42.2318 5.97917 41.9141 5.79688C41.5964 5.60938 41.2214 5.51562 40.7891 5.51562ZM54.3203 4.57812C55.2578 4.57812 56.0312 4.69531 56.6406 4.92969C57.2552 5.15885 57.7135 5.51042 58.0156 5.98438C58.3177 6.45833 58.4688 7.0625 58.4688 7.79688C58.4688 8.40104 58.3594 8.90625 58.1406 9.3125C57.9219 9.71354 57.6354 10.0391 57.2812 10.2891C56.9271 10.5391 56.5495 10.7318 56.1484 10.8672L59.2812 16H57.7344L54.9375 11.2344H52.5625V16H51.2344V4.57812H54.3203ZM54.2422 5.72656H52.5625V10.1094H54.375C55.3073 10.1094 55.9922 9.91927 56.4297 9.53906C56.8724 9.15885 57.0938 8.59896 57.0938 7.85938C57.0938 7.08333 56.8594 6.53385 56.3906 6.21094C55.9271 5.88802 55.2109 5.72656 54.2422 5.72656ZM64.1172 7.29688C65.138 7.29688 65.8958 7.52604 66.3906 7.98438C66.8854 8.44271 67.1328 9.17448 67.1328 10.1797V16H66.1875L65.9375 14.7344H65.875C65.6354 15.0469 65.3854 15.3099 65.125 15.5234C64.8646 15.7318 64.5625 15.8906 64.2188 16C63.8802 16.1042 63.4635 16.1562 62.9688 16.1562C62.4479 16.1562 61.9844 16.0651 61.5781 15.8828C61.1771 15.7005 60.8594 15.4245 60.625 15.0547C60.3958 14.6849 60.2812 14.2161 60.2812 13.6484C60.2812 12.7943 60.6198 12.138 61.2969 11.6797C61.974 11.2214 63.0052 10.9714 64.3906 10.9297L65.8672 10.8672V10.3438C65.8672 9.60417 65.7083 9.08594 65.3906 8.78906C65.0729 8.49219 64.625 8.34375 64.0469 8.34375C63.599 8.34375 63.1719 8.40885 62.7656 8.53906C62.3594 8.66927 61.974 8.82292 61.6094 9L61.2109 8.01562C61.5964 7.81771 62.0391 7.64844 62.5391 7.50781C63.0391 7.36719 63.5651 7.29688 64.1172 7.29688ZM65.8516 11.7812L64.5469 11.8359C63.4792 11.8776 62.7266 12.0521 62.2891 12.3594C61.8516 12.6667 61.6328 13.1016 61.6328 13.6641C61.6328 14.1536 61.7812 14.5156 62.0781 14.75C62.375 14.9844 62.7682 15.1016 63.2578 15.1016C64.0182 15.1016 64.6406 14.8906 65.125 14.4688C65.6094 14.0469 65.8516 13.4141 65.8516 12.5703V11.7812ZM72.5703 15.0938C72.7839 15.0938 73.0026 15.0755 73.2266 15.0391C73.4505 15.0026 73.6328 14.9583 73.7734 14.9062V15.9141C73.6224 15.9818 73.4115 16.0391 73.1406 16.0859C72.875 16.1328 72.6146 16.1562 72.3594 16.1562C71.9062 16.1562 71.4948 16.0781 71.125 15.9219C70.7552 15.7604 70.4583 15.4896 70.2344 15.1094C70.0156 14.7292 69.9062 14.2031 69.9062 13.5312V8.45312H68.6875V7.82031L69.9141 7.3125L70.4297 5.45312H71.2109V7.4375H73.7188V8.45312H71.2109V13.4922C71.2109 14.0286 71.3333 14.4297 71.5781 14.6953C71.8281 14.9609 72.1589 15.0938 72.5703 15.0938ZM76.8047 7.4375V16H75.5078V7.4375H76.8047ZM76.1719 4.23438C76.3854 4.23438 76.5677 4.30469 76.7188 4.44531C76.875 4.58073 76.9531 4.79427 76.9531 5.08594C76.9531 5.3724 76.875 5.58594 76.7188 5.72656C76.5677 5.86719 76.3854 5.9375 76.1719 5.9375C75.9479 5.9375 75.7604 5.86719 75.6094 5.72656C75.4635 5.58594 75.3906 5.3724 75.3906 5.08594C75.3906 4.79427 75.4635 4.58073 75.6094 4.44531C75.7604 4.30469 75.9479 4.23438 76.1719 4.23438ZM83.6094 7.28125C84.625 7.28125 85.3932 7.53125 85.9141 8.03125C86.4349 8.52604 86.6953 9.32292 86.6953 10.4219V16H85.4141V10.5078C85.4141 9.79427 85.25 9.26042 84.9219 8.90625C84.599 8.55208 84.1016 8.375 83.4297 8.375C82.4818 8.375 81.8151 8.64323 81.4297 9.17969C81.0443 9.71615 80.8516 10.4948 80.8516 11.5156V16H79.5547V7.4375H80.6016L80.7969 8.67188H80.8672C81.0495 8.36979 81.2812 8.11719 81.5625 7.91406C81.8438 7.70573 82.1589 7.54948 82.5078 7.44531C82.8568 7.33594 83.224 7.28125 83.6094 7.28125ZM91.7578 19.8438C90.6328 19.8438 89.7656 19.6328 89.1562 19.2109C88.5469 18.7943 88.2422 18.2083 88.2422 17.4531C88.2422 16.9167 88.4115 16.4583 88.75 16.0781C89.0938 15.6979 89.5677 15.4453 90.1719 15.3203C89.9479 15.2161 89.7552 15.0599 89.5938 14.8516C89.4375 14.6432 89.3594 14.4036 89.3594 14.1328C89.3594 13.8203 89.4453 13.5469 89.6172 13.3125C89.7943 13.0729 90.0625 12.8438 90.4219 12.625C89.974 12.4427 89.6094 12.1354 89.3281 11.7031C89.0521 11.2656 88.9141 10.7578 88.9141 10.1797C88.9141 9.5651 89.0417 9.04167 89.2969 8.60938C89.5521 8.17188 89.9219 7.83854 90.4062 7.60938C90.8906 7.38021 91.4766 7.26562 92.1641 7.26562C92.3151 7.26562 92.4661 7.27344 92.6172 7.28906C92.7734 7.29948 92.9219 7.31771 93.0625 7.34375C93.2031 7.36458 93.3255 7.39062 93.4297 7.42188H96.3672V8.25781L94.7891 8.45312C94.9453 8.65625 95.0755 8.90104 95.1797 9.1875C95.2839 9.47396 95.3359 9.79167 95.3359 10.1406C95.3359 10.9948 95.0469 11.6745 94.4688 12.1797C93.8906 12.6797 93.0964 12.9297 92.0859 12.9297C91.8464 12.9297 91.6016 12.9089 91.3516 12.8672C91.0964 13.0078 90.901 13.1641 90.7656 13.3359C90.6354 13.5078 90.5703 13.7057 90.5703 13.9297C90.5703 14.0964 90.6198 14.2292 90.7188 14.3281C90.8229 14.4271 90.9714 14.5 91.1641 14.5469C91.3568 14.5885 91.5885 14.6094 91.8594 14.6094H93.3672C94.2995 14.6094 95.013 14.8047 95.5078 15.1953C96.0078 15.5859 96.2578 16.1562 96.2578 16.9062C96.2578 17.8542 95.8724 18.5807 95.1016 19.0859C94.3307 19.5911 93.2161 19.8438 91.7578 19.8438ZM91.7969 18.8281C92.5052 18.8281 93.0911 18.7552 93.5547 18.6094C94.0234 18.4688 94.3724 18.263 94.6016 17.9922C94.8359 17.7266 94.9531 17.4089 94.9531 17.0391C94.9531 16.6953 94.875 16.4349 94.7188 16.2578C94.5625 16.0859 94.3333 15.9714 94.0312 15.9141C93.7292 15.8516 93.3594 15.8203 92.9219 15.8203H91.4375C91.0521 15.8203 90.7161 15.8802 90.4297 16C90.1432 16.1198 89.9219 16.2969 89.7656 16.5312C89.6146 16.7656 89.5391 17.0573 89.5391 17.4062C89.5391 17.8698 89.7344 18.2214 90.125 18.4609C90.5156 18.7057 91.0729 18.8281 91.7969 18.8281ZM92.1328 11.9844C92.7526 11.9844 93.2188 11.8281 93.5312 11.5156C93.8438 11.2031 94 10.7474 94 10.1484C94 9.50781 93.8411 9.02865 93.5234 8.71094C93.2057 8.38802 92.737 8.22656 92.1172 8.22656C91.5234 8.22656 91.0651 8.39323 90.7422 8.72656C90.4245 9.05469 90.2656 9.53646 90.2656 10.1719C90.2656 10.7552 90.4271 11.2031 90.75 11.5156C91.0729 11.8281 91.5339 11.9844 92.1328 11.9844Z" fill="#24AB70"/>
</svg>
