<svg width="151" height="21" viewBox="0 0 151 21" fill="none" xmlns="http://www.w3.org/2000/svg">
<path d="M134.728 14.9462H132.755V18H131.296V14.9462H124.927V13.6851L131.197 4.75784H132.755V13.595H134.728V14.9462ZM131.296 13.595V9.28901C131.296 8.95871 131.299 8.66144 131.305 8.39719C131.311 8.12694 131.32 7.87772 131.332 7.64951C131.344 7.41529 131.353 7.19308 131.359 6.98289C131.371 6.7727 131.38 6.56551 131.386 6.36132H131.314C131.2 6.60154 131.068 6.85678 130.917 7.12702C130.773 7.39127 130.626 7.62849 130.476 7.83868L126.413 13.595H131.296ZM136.439 17.0632C136.439 16.6428 136.542 16.3455 136.746 16.1713C136.95 15.9912 137.199 15.9011 137.493 15.9011C137.8 15.9011 138.058 15.9912 138.268 16.1713C138.478 16.3455 138.583 16.6428 138.583 17.0632C138.583 17.4775 138.478 17.7808 138.268 17.973C138.058 18.1592 137.8 18.2523 137.493 18.2523C137.199 18.2523 136.95 18.1592 136.746 17.973C136.542 17.7808 136.439 17.4775 136.439 17.0632ZM145.196 4.64074C145.958 4.64074 146.634 4.76085 147.222 5.00107C147.811 5.24129 148.27 5.59561 148.601 6.06405C148.937 6.52647 149.105 7.097 149.105 7.77562C149.105 8.31011 148.988 8.77854 148.754 9.18091C148.526 9.57728 148.216 9.9256 147.826 10.2259C147.436 10.5201 147.003 10.7844 146.529 11.0186C147.093 11.2768 147.601 11.5681 148.051 11.8924C148.508 12.2167 148.868 12.5981 149.132 13.0365C149.396 13.4749 149.529 13.9943 149.529 14.5949C149.529 15.3336 149.348 15.9732 148.988 16.5137C148.634 17.0482 148.135 17.4595 147.493 17.7478C146.85 18.0361 146.096 18.1802 145.232 18.1802C144.301 18.1802 143.508 18.0421 142.853 17.7658C142.205 17.4836 141.709 17.0812 141.367 16.5587C141.031 16.0302 140.863 15.3966 140.863 14.658C140.863 14.0514 140.992 13.5259 141.25 13.0815C141.508 12.6311 141.85 12.2437 142.277 11.9194C142.703 11.5951 143.169 11.3219 143.673 11.0997C143.235 10.8595 142.832 10.5862 142.466 10.2799C142.106 9.97364 141.817 9.61632 141.601 9.20794C141.391 8.79356 141.286 8.31312 141.286 7.76661C141.286 7.1 141.454 6.53548 141.79 6.07305C142.133 5.60462 142.598 5.2503 143.187 5.01008C143.781 4.76385 144.451 4.64074 145.196 4.64074ZM142.331 14.667C142.331 15.3396 142.568 15.8951 143.043 16.3335C143.517 16.7659 144.235 16.9821 145.196 16.9821C146.108 16.9821 146.814 16.7659 147.312 16.3335C147.811 15.8951 148.06 15.3216 148.06 14.6129C148.06 14.1745 147.946 13.7902 147.718 13.4599C147.49 13.1235 147.165 12.8233 146.745 12.559C146.325 12.2948 145.829 12.0546 145.259 11.8384L144.934 11.7213C144.382 11.9495 143.91 12.2047 143.52 12.487C143.136 12.7632 142.841 13.0785 142.637 13.4328C142.433 13.7872 142.331 14.1985 142.331 14.667ZM145.178 5.86586C144.469 5.86586 143.889 6.03702 143.439 6.37934C142.989 6.71565 142.763 7.20209 142.763 7.83868C142.763 8.2951 142.871 8.68246 143.088 9.00075C143.31 9.31304 143.61 9.58328 143.988 9.81149C144.367 10.0337 144.79 10.2409 145.259 10.4331C145.715 10.2409 146.12 10.0307 146.475 9.80249C146.829 9.56827 147.108 9.29202 147.312 8.97372C147.517 8.65543 147.619 8.27408 147.619 7.82967C147.619 7.19308 147.394 6.70664 146.943 6.37033C146.499 6.03402 145.91 5.86586 145.178 5.86586Z" fill="#222222"/>
<g clip-path="url(#clip0_4043_204)">
<path d="M13.4986 17.2959C13.3756 17.2964 13.2544 17.2674 13.145 17.2114L9.22455 15.1589L5.30414 17.2114C5.17684 17.2783 5.03331 17.3082 4.88986 17.2976C4.74642 17.287 4.60883 17.2364 4.49271 17.1516C4.3766 17.0667 4.28663 16.9509 4.23303 16.8174C4.17943 16.684 4.16436 16.5381 4.18951 16.3965L4.95822 12.0687L1.79115 8.99388C1.69233 8.89527 1.62224 8.77162 1.58838 8.63619C1.55452 8.50077 1.55818 8.35868 1.59897 8.22517C1.64352 8.08855 1.72548 7.96716 1.83554 7.87476C1.9456 7.78237 2.07935 7.72267 2.22162 7.70245L6.60325 7.06442L8.53271 3.12095C8.59566 2.99099 8.69394 2.88138 8.81629 2.80469C8.93865 2.72799 9.08014 2.68732 9.22455 2.68732C9.36895 2.68732 9.51044 2.72799 9.6328 2.80469C9.75516 2.88138 9.85344 2.99099 9.91638 3.12095L11.8689 7.05673L16.2505 7.69476C16.3928 7.71498 16.5266 7.77468 16.6366 7.86707C16.7467 7.95947 16.8286 8.08086 16.8732 8.21748C16.914 8.35099 16.9176 8.49308 16.8838 8.62851C16.8499 8.76393 16.7798 8.88758 16.681 8.98619L13.5139 12.061L14.2826 16.3888C14.3101 16.533 14.2957 16.6819 14.2412 16.8181C14.1867 16.9543 14.0944 17.0721 13.9752 17.1576C13.836 17.2551 13.6684 17.3038 13.4986 17.2959Z" fill="#F95F5F"/>
</g>
<g clip-path="url(#clip1_4043_204)">
<path d="M36.5596 17.2959C36.4367 17.2964 36.3154 17.2674 36.206 17.2114L32.2856 15.1589L28.3652 17.2114C28.2379 17.2783 28.0943 17.3082 27.9509 17.2976C27.8075 17.287 27.6699 17.2364 27.5537 17.1516C27.4376 17.0667 27.3477 16.9509 27.2941 16.8174C27.2405 16.684 27.2254 16.5381 27.2505 16.3965L28.0193 12.0687L24.8522 8.99388C24.7534 8.89527 24.6833 8.77162 24.6494 8.63619C24.6156 8.50077 24.6192 8.35868 24.66 8.22517C24.7046 8.08855 24.7865 7.96716 24.8966 7.87476C25.0066 7.78237 25.1404 7.72267 25.2827 7.70245L29.6643 7.06442L31.5937 3.12095C31.6567 2.99099 31.755 2.88138 31.8773 2.80469C31.9997 2.72799 32.1412 2.68732 32.2856 2.68732C32.43 2.68732 32.5715 2.72799 32.6938 2.80469C32.8162 2.88138 32.9145 2.99099 32.9774 3.12095L34.9299 7.05673L39.3116 7.69476C39.4538 7.71498 39.5876 7.77468 39.6977 7.86707C39.8077 7.95947 39.8897 8.08086 39.9342 8.21748C39.975 8.35099 39.9787 8.49308 39.9448 8.62851C39.911 8.76393 39.8409 8.88758 39.742 8.98619L36.575 12.061L37.3437 16.3888C37.3711 16.533 37.3568 16.6819 37.3023 16.8181C37.2478 16.9543 37.1555 17.0721 37.0362 17.1576C36.897 17.2551 36.7294 17.3038 36.5596 17.2959Z" fill="#F95F5F"/>
</g>
<g clip-path="url(#clip2_4043_204)">
<path d="M59.6211 17.2959C59.4982 17.2964 59.3769 17.2674 59.2675 17.2114L55.3471 15.1589L51.4267 17.2114C51.2994 17.2783 51.1559 17.3082 51.0124 17.2976C50.869 17.287 50.7314 17.2364 50.6153 17.1516C50.4992 17.0667 50.4092 16.9509 50.3556 16.8174C50.302 16.684 50.2869 16.5381 50.3121 16.3965L51.0808 12.0687L47.9137 8.99388C47.8149 8.89527 47.7448 8.77162 47.7109 8.63619C47.6771 8.50077 47.6807 8.35868 47.7215 8.22517C47.7661 8.08855 47.848 7.96716 47.9581 7.87476C48.0682 7.78237 48.2019 7.72267 48.3442 7.70245L52.7258 7.06442L54.6553 3.12095C54.7182 2.99099 54.8165 2.88138 54.9389 2.80469C55.0612 2.72799 55.2027 2.68732 55.3471 2.68732C55.4915 2.68732 55.633 2.72799 55.7554 2.80469C55.8777 2.88138 55.976 2.99099 56.0389 3.12095L57.9915 7.05673L62.3731 7.69476C62.5154 7.71498 62.6491 7.77468 62.7592 7.86707C62.8692 7.95947 62.9512 8.08086 62.9957 8.21748C63.0365 8.35099 63.0402 8.49308 63.0063 8.62851C62.9725 8.76393 62.9024 8.88758 62.8036 8.98619L59.6365 12.061L60.4052 16.3888C60.4326 16.533 60.4183 16.6819 60.3638 16.8181C60.3093 16.9543 60.217 17.0721 60.0977 17.1576C59.9585 17.2551 59.7909 17.3038 59.6211 17.2959Z" fill="#F95F5F"/>
</g>
<g clip-path="url(#clip3_4043_204)">
<path d="M82.6819 17.2959C82.559 17.2964 82.4377 17.2674 82.3283 17.2114L78.4079 15.1589L74.4875 17.2114C74.3602 17.2783 74.2167 17.3082 74.0732 17.2976C73.9298 17.287 73.7922 17.2364 73.6761 17.1516C73.5599 17.0667 73.47 16.9509 73.4164 16.8174C73.3628 16.684 73.3477 16.5381 73.3729 16.3965L74.1416 12.0687L70.9745 8.99388C70.8757 8.89527 70.8056 8.77162 70.7717 8.63619C70.7379 8.50077 70.7415 8.35868 70.7823 8.22517C70.8269 8.08855 70.9088 7.96716 71.0189 7.87476C71.1289 7.78237 71.2627 7.72267 71.405 7.70245L75.7866 7.06442L77.7161 3.12095C77.779 2.99099 77.8773 2.88138 77.9996 2.80469C78.122 2.72799 78.2635 2.68732 78.4079 2.68732C78.5523 2.68732 78.6938 2.72799 78.8161 2.80469C78.9385 2.88138 79.0368 2.99099 79.0997 3.12095L81.0522 7.05673L85.4339 7.69476C85.5762 7.71498 85.7099 7.77468 85.82 7.86707C85.93 7.95947 86.012 8.08086 86.0565 8.21748C86.0973 8.35099 86.101 8.49308 86.0671 8.62851C86.0333 8.76393 85.9632 8.88758 85.8644 8.98619L82.6973 12.061L83.466 16.3888C83.4934 16.533 83.4791 16.6819 83.4246 16.8181C83.3701 16.9543 83.2778 17.0721 83.1585 17.1576C83.0193 17.2551 82.8517 17.3038 82.6819 17.2959Z" fill="#F95F5F"/>
</g>
<g clip-path="url(#clip4_4043_204)">
<path d="M105.743 17.2959C105.62 17.2964 105.499 17.2674 105.39 17.2114L101.469 15.1589L97.549 17.2114C97.4217 17.2783 97.2782 17.3082 97.1347 17.2976C96.9913 17.287 96.8537 17.2364 96.7376 17.1516C96.6215 17.0667 96.5315 16.9509 96.4779 16.8174C96.4243 16.684 96.4092 16.5381 96.4344 16.3965L97.2031 12.0687L94.036 8.99388C93.9372 8.89527 93.8671 8.77162 93.8333 8.63619C93.7994 8.50077 93.8031 8.35868 93.8438 8.22517C93.8884 8.08855 93.9704 7.96716 94.0804 7.87476C94.1905 7.78237 94.3242 7.72267 94.4665 7.70245L98.8481 7.06442L100.778 3.12095C100.841 2.99099 100.939 2.88138 101.061 2.80469C101.184 2.72799 101.325 2.68732 101.469 2.68732C101.614 2.68732 101.755 2.72799 101.878 2.80469C102 2.88138 102.098 2.99099 102.161 3.12095L104.114 7.05673L108.495 7.69476C108.638 7.71498 108.771 7.77468 108.881 7.86707C108.992 7.95947 109.074 8.08086 109.118 8.21748C109.159 8.35099 109.163 8.49308 109.129 8.62851C109.095 8.76393 109.025 8.88758 108.926 8.98619L105.759 12.061L106.528 16.3888C106.555 16.533 106.541 16.6819 106.486 16.8181C106.432 16.9543 106.339 17.0721 106.22 17.1576C106.081 17.2551 105.913 17.3038 105.743 17.2959Z" fill="#E5E5E5"/>
</g>
<defs>
<clipPath id="clip0_4043_204">
<rect width="18.449" height="18.449" fill="white" transform="translate(0 1.15308)"/>
</clipPath>
<clipPath id="clip1_4043_204">
<rect width="18.449" height="18.449" fill="white" transform="translate(23.0613 1.15308)"/>
</clipPath>
<clipPath id="clip2_4043_204">
<rect width="18.449" height="18.449" fill="white" transform="translate(46.1226 1.15308)"/>
</clipPath>
<clipPath id="clip3_4043_204">
<rect width="18.449" height="18.449" fill="white" transform="translate(69.1836 1.15308)"/>
</clipPath>
<clipPath id="clip4_4043_204">
<rect width="18.449" height="18.449" fill="white" transform="translate(92.2449 1.15308)"/>
</clipPath>
</defs>
</svg>
